<svg xmlns="http://www.w3.org/2000/svg" xmlns:xlink="http://www.w3.org/1999/xlink" width="500" zoomAndPan="magnify" viewBox="0 0 375 374.999991" height="500" preserveAspectRatio="xMidYMid meet" version="1.0"><defs><g/><clipPath id="id1"><path d="M 127.316406 122.625 L 231 122.625 L 231 257.625 L 127.316406 257.625 Z M 127.316406 122.625 " clip-rule="nonzero"/></clipPath><clipPath id="id2"><path d="M 190 180 L 248.066406 180 L 248.066406 256 L 190 256 Z M 190 180 " clip-rule="nonzero"/></clipPath></defs><g clip-path="url(#id1)"><path fill="#38b6ff" d="M 230.324219 148.378906 L 230.324219 195.613281 C 230.324219 228.003906 210.371094 245.894531 180.257812 257.351562 C 179.8125 257.523438 179.332031 257.625 178.847656 257.625 C 178.367188 257.625 177.886719 257.523438 177.441406 257.351562 C 155.910156 249.210938 127.339844 233.921875 127.339844 195.613281 L 127.339844 148.378906 C 127.339844 146.191406 129.125 144.445312 131.289062 144.445312 C 153.265625 144.445312 175.929688 124.199219 176.171875 123.992188 C 177.683594 122.625 179.984375 122.625 181.492188 123.992188 C 181.734375 124.199219 204.433594 144.445312 226.375 144.445312 C 228.539062 144.445312 230.324219 146.191406 230.324219 148.378906 Z M 230.324219 148.378906 " fill-opacity="1" fill-rule="nonzero"/></g><g clip-path="url(#id2)"><path fill="#004aad" d="M 248.042969 194.316406 L 248.042969 220.960938 C 248.042969 239.222656 236.8125 249.3125 219.816406 255.777344 C 219.574219 255.882812 219.300781 255.914062 219.027344 255.914062 C 218.75 255.914062 218.476562 255.882812 218.234375 255.777344 C 206.113281 251.160156 190.007812 242.542969 190.007812 220.960938 L 190.007812 194.316406 C 190.007812 193.082031 191.003906 192.09375 192.242188 192.09375 C 204.636719 192.09375 217.410156 180.667969 217.550781 180.566406 C 218.40625 179.8125 219.710938 179.8125 220.535156 180.566406 C 220.675781 180.667969 233.484375 192.09375 245.84375 192.09375 C 247.046875 192.09375 248.042969 193.082031 248.042969 194.316406 Z M 248.042969 194.316406 " fill-opacity="1" fill-rule="nonzero"/></g><path fill="#5271ff" d="M 230.324219 195.613281 C 230.324219 219.453125 219.539062 235.425781 201.820312 246.78125 C 195.125 241.242188 189.976562 233.171875 189.976562 220.960938 L 189.976562 194.316406 C 189.976562 193.082031 190.972656 192.09375 192.207031 192.09375 C 204.605469 192.09375 217.378906 180.667969 217.515625 180.566406 C 218.375 179.8125 219.679688 179.8125 220.503906 180.566406 C 220.570312 180.632812 224.625 184.226562 230.324219 187.371094 Z M 230.324219 195.613281 " fill-opacity="1" fill-rule="nonzero"/><g fill="#071d3b" fill-opacity="1"><g transform="translate(131.342952, 317.539697)"><g><path d="M 18.453125 -25.671875 L 27.09375 -25.671875 L 27.09375 0 L 18.515625 0 L 18.515625 -10.421875 L 12.171875 -10.421875 L 12.171875 -15.578125 L 18.453125 -15.578125 Z M 10.8125 0 L 2.265625 0 L 2.265625 -25.671875 L 10.8125 -25.671875 Z M 10.8125 0 "/></g></g></g><g fill="#071d3b" fill-opacity="1"><g transform="translate(163.328406, 317.539697)"><g><path d="M 1.875 -5.46875 L 4.453125 -5.46875 L 4.453125 -20.21875 L 1.875 -20.21875 L 1.875 -25.671875 L 15.578125 -25.671875 L 15.578125 -20.21875 L 13 -20.21875 L 13 -5.46875 L 15.578125 -5.46875 L 15.578125 0 L 1.875 0 Z M 1.875 -5.46875 "/></g></g></g><g fill="#071d3b" fill-opacity="1"><g transform="translate(183.434848, 317.539697)"><g><path d="M 19.109375 -2.8125 L 10.71875 -2.8125 L 12.5 -7.890625 L 17.140625 -7.890625 L 10.28125 -25.671875 L 18.609375 -25.671875 L 28.84375 0 L 20.203125 0 Z M 8.4375 0 L 0.171875 0 L 9.34375 -24.515625 L 13.140625 -14.3125 Z M 8.4375 0 "/></g></g></g><g fill="#071d3b" fill-opacity="1"><g transform="translate(215.11075, 317.539697)"><g><path d="M 18.125 0 L 18.125 -9.609375 L 7.015625 -9.609375 L 1.875 -14.765625 L 1.875 -20.546875 L 7.015625 -25.671875 L 9.921875 -25.671875 L 9.921875 -16.5625 L 21.734375 -16.5625 L 26.703125 -11.421875 L 26.703125 -5.125 L 21.578125 0 Z M 11.28125 -21.046875 L 11.28125 -25.671875 L 21.546875 -25.671875 L 26 -21.203125 L 26 -18.484375 L 18.125 -18.484375 L 18.125 -21.046875 Z M 1.875 -7.703125 L 10.421875 -7.703125 L 10.421875 -4.640625 L 16.78125 -4.640625 L 16.78125 0 L 6.1875 0 L 1.875 -5.125 Z M 1.875 -7.703125 "/></g></g></g><g fill="#071d3b" fill-opacity="1"><g transform="translate(88.835498, 271.161142)"><g><path d="M -20.84375 -3.59375 L -8.609375 -12.21875 L -7.71875 -10.9375 L -13.359375 -6.953125 L -7.953125 0.703125 L -2.3125 -3.28125 L -1.40625 -1.984375 L -13.640625 6.640625 L -14.546875 5.34375 L -9.09375 1.5 L -14.5 -6.15625 L -19.953125 -2.3125 Z M -20.84375 -3.59375 "/></g></g></g><g fill="#071d3b" fill-opacity="1"><g transform="translate(75.098447, 250.19454)"><g><path d="M -6.671875 -11.28125 L -5.421875 -11.859375 L -1.015625 -2.21875 L -14.625 4 L -18.890625 -5.328125 L -17.65625 -5.890625 L -14.046875 2 L -9.203125 -0.21875 L -12.421875 -7.265625 L -11.203125 -7.828125 L -7.984375 -0.78125 L -2.921875 -3.078125 Z M -6.671875 -11.28125 "/></g></g></g><g fill="#071d3b" fill-opacity="1"><g transform="translate(66.535634, 229.887048)"><g><path d="M -6.8125 -10.46875 L -4.734375 -2.390625 L -0.421875 -1.640625 L -0.015625 -0.046875 L -16.203125 -2.96875 L -16.59375 -4.484375 L -3.796875 -14.8125 L -3.375 -13.203125 Z M -7.890625 -9.59375 L -14.796875 -4.125 L -6.109375 -2.625 Z M -7.890625 -9.59375 "/></g></g></g><g fill="#071d3b" fill-opacity="1"><g transform="translate(61.569152, 207.31901)"><g><path d="M -15.109375 -1.265625 L -15.234375 -2.828125 L -1.6875 -3.890625 L -2.359375 -12.265625 L -0.984375 -12.375 L -0.1875 -2.4375 Z M -15.109375 -1.265625 "/></g></g></g><g fill="#071d3b" fill-opacity="1"><g transform="translate(60.596847, 186.889561)"><g><path d="M -13.125 -6.4375 L -13.5625 -1.1875 L -14.921875 -1.296875 L -13.9375 -13.359375 L -12.578125 -13.25 L -13 -8.03125 L 0.5625 -6.921875 L 0.4375 -5.328125 Z M -13.125 -6.4375 "/></g></g></g><g fill="#071d3b" fill-opacity="1"><g transform="translate(62.68451, 166.970596)"><g><path d="M -10.640625 -18.296875 L 3.828125 -14.453125 L 3.4375 -12.9375 L -3.234375 -14.703125 L -5.640625 -5.640625 L 1.03125 -3.875 L 0.625 -2.359375 L -13.84375 -6.203125 L -13.4375 -7.71875 L -6.984375 -6 L -4.578125 -15.0625 L -11.03125 -16.78125 Z M -10.640625 -18.296875 "/></g></g></g><g fill="#071d3b" fill-opacity="1"><g transform="translate(70.178593, 142.84433)"><g/></g></g><g fill="#071d3b" fill-opacity="1"><g transform="translate(76.102229, 130.396534)"><g><path d="M -11.734375 -9.609375 L -10.9375 -10.96875 L 2.015625 -3.46875 L 1.21875 -2.109375 Z M -11.734375 -9.609375 "/></g></g></g><g fill="#071d3b" fill-opacity="1"><g transform="translate(83.462305, 118.055899)"><g><path d="M -2.203125 -21.046875 L 9.421875 -11.625 L 8.59375 -10.59375 L -6.90625 -10.78125 L 2.53125 -3.125 L 1.53125 -1.890625 L -10.09375 -11.3125 L -9.265625 -12.328125 L 6.234375 -12.1875 L -3.1875 -19.828125 Z M -2.203125 -21.046875 "/></g></g></g><g fill="#071d3b" fill-opacity="1"><g transform="translate(99.940347, 99.137309)"><g><path d="M 5.0625 -4.171875 C 4.21875 -3.453125 3.296875 -2.894531 2.296875 -2.5 C 1.296875 -2.113281 0.394531 -1.957031 -0.40625 -2.03125 L -0.734375 -3.359375 C 0.0234375 -3.296875 0.851562 -3.429688 1.75 -3.765625 C 2.65625 -4.097656 3.46875 -4.570312 4.1875 -5.1875 C 5.207031 -6.0625 5.8125 -6.90625 6 -7.71875 C 6.195312 -8.53125 6.039062 -9.234375 5.53125 -9.828125 C 5.144531 -10.285156 4.695312 -10.53125 4.1875 -10.5625 C 3.675781 -10.601562 3.15625 -10.523438 2.625 -10.328125 C 2.101562 -10.128906 1.40625 -9.8125 0.53125 -9.375 C -0.5 -8.84375 -1.351562 -8.457031 -2.03125 -8.21875 C -2.71875 -7.988281 -3.414062 -7.925781 -4.125 -8.03125 C -4.84375 -8.132812 -5.503906 -8.539062 -6.109375 -9.25 C -6.597656 -9.8125 -6.890625 -10.457031 -6.984375 -11.1875 C -7.085938 -11.925781 -6.945312 -12.703125 -6.5625 -13.515625 C -6.1875 -14.335938 -5.53125 -15.148438 -4.59375 -15.953125 C -3.945312 -16.503906 -3.234375 -16.953125 -2.453125 -17.296875 C -1.679688 -17.648438 -0.9375 -17.875 -0.21875 -17.96875 L 0.21875 -16.65625 C -0.539062 -16.5625 -1.253906 -16.359375 -1.921875 -16.046875 C -2.597656 -15.742188 -3.195312 -15.367188 -3.71875 -14.921875 C -4.71875 -14.066406 -5.300781 -13.234375 -5.46875 -12.421875 C -5.632812 -11.609375 -5.457031 -10.894531 -4.9375 -10.28125 C -4.550781 -9.832031 -4.101562 -9.585938 -3.59375 -9.546875 C -3.09375 -9.503906 -2.566406 -9.585938 -2.015625 -9.796875 C -1.472656 -10.015625 -0.773438 -10.335938 0.078125 -10.765625 C 1.085938 -11.265625 1.929688 -11.632812 2.609375 -11.875 C 3.296875 -12.125 3.992188 -12.195312 4.703125 -12.09375 C 5.410156 -12 6.0625 -11.601562 6.65625 -10.90625 C 7.144531 -10.332031 7.4375 -9.675781 7.53125 -8.9375 C 7.632812 -8.207031 7.484375 -7.429688 7.078125 -6.609375 C 6.671875 -5.785156 6 -4.972656 5.0625 -4.171875 Z M 5.0625 -4.171875 "/></g></g></g><g fill="#071d3b" fill-opacity="1"><g transform="translate(116.141319, 85.948153)"><g><path d="M 7.375 -4.15625 C 5.695312 -3.1875 4.113281 -2.90625 2.625 -3.3125 C 1.132812 -3.726562 -0.144531 -4.851562 -1.21875 -6.6875 L -5.546875 -14.09375 L -4.1875 -14.890625 L 0.109375 -7.546875 C 0.984375 -6.035156 1.972656 -5.109375 3.078125 -4.765625 C 4.191406 -4.429688 5.390625 -4.632812 6.671875 -5.375 C 7.960938 -6.132812 8.726562 -7.078125 8.96875 -8.203125 C 9.21875 -9.335938 8.90625 -10.660156 8.03125 -12.171875 L 3.734375 -19.515625 L 5.0625 -20.296875 L 9.390625 -12.890625 C 10.460938 -11.054688 10.8125 -9.382812 10.4375 -7.875 C 10.070312 -6.375 9.050781 -5.132812 7.375 -4.15625 Z M 7.375 -4.15625 "/></g></g></g><g fill="#071d3b" fill-opacity="1"><g transform="translate(137.773048, 74.228842)"><g><path d="M 11.9375 -4.21875 L 7.09375 -7.609375 C 6.75 -7.453125 6.382812 -7.304688 6 -7.171875 L 2.203125 -5.828125 L 3.78125 -1.34375 L 2.296875 -0.8125 L -2.703125 -14.921875 L 2.578125 -16.796875 C 4.378906 -17.429688 5.941406 -17.5 7.265625 -17 C 8.597656 -16.5 9.53125 -15.5 10.0625 -14 C 10.445312 -12.882812 10.492188 -11.851562 10.203125 -10.90625 C 9.921875 -9.957031 9.320312 -9.128906 8.40625 -8.421875 L 13.5625 -4.796875 Z M 5.515625 -8.421875 C 6.898438 -8.910156 7.851562 -9.59375 8.375 -10.46875 C 8.90625 -11.351562 8.972656 -12.359375 8.578125 -13.484375 C 8.171875 -14.617188 7.484375 -15.359375 6.515625 -15.703125 C 5.554688 -16.054688 4.382812 -15.988281 3 -15.5 L -0.765625 -14.171875 L 1.75 -7.09375 Z M 5.515625 -8.421875 "/></g></g></g><g fill="#071d3b" fill-opacity="1"><g transform="translate(159.840677, 67.167214)"><g><path d="M 11.0625 -5.8125 L 2.8125 -4.5 L 1.671875 -0.265625 L 0.046875 0 L 4.4375 -15.859375 L 5.984375 -16.109375 L 15.109375 -2.40625 L 13.453125 -2.140625 Z M 10.28125 -6.984375 L 5.46875 -14.359375 L 3.1875 -5.859375 Z M 10.28125 -6.984375 "/></g></g></g><g fill="#071d3b" fill-opacity="1"><g transform="translate(182.647476, 64.169439)"><g><path d="M 15.421875 -14.5 L 14.953125 0.46875 L 13.640625 0.421875 L 4.390625 -12.03125 L 4.015625 0.125 L 2.4375 0.078125 L 2.90625 -14.890625 L 4.21875 -14.84375 L 13.484375 -2.40625 L 13.859375 -14.546875 Z M 15.421875 -14.5 "/></g></g></g><g fill="#071d3b" fill-opacity="1"><g transform="translate(207.636415, 65.778495)"><g><path d="M 8.6875 2.078125 C 7.25 1.753906 6.019531 1.140625 5 0.234375 C 3.976562 -0.660156 3.265625 -1.75 2.859375 -3.03125 C 2.453125 -4.3125 2.40625 -5.648438 2.71875 -7.046875 C 3.03125 -8.453125 3.644531 -9.648438 4.5625 -10.640625 C 5.476562 -11.640625 6.59375 -12.320312 7.90625 -12.6875 C 9.226562 -13.0625 10.613281 -13.085938 12.0625 -12.765625 C 13.132812 -12.523438 14.085938 -12.117188 14.921875 -11.546875 C 15.765625 -10.972656 16.425781 -10.269531 16.90625 -9.4375 L 15.71875 -8.671875 C 14.832031 -10.085938 13.519531 -10.992188 11.78125 -11.390625 C 10.632812 -11.640625 9.523438 -11.601562 8.453125 -11.28125 C 7.390625 -10.96875 6.488281 -10.410156 5.75 -9.609375 C 5.007812 -8.816406 4.507812 -7.847656 4.25 -6.703125 C 3.988281 -5.566406 4.023438 -4.476562 4.359375 -3.4375 C 4.691406 -2.394531 5.269531 -1.503906 6.09375 -0.765625 C 6.925781 -0.0234375 7.914062 0.46875 9.0625 0.71875 C 10.820312 1.113281 12.394531 0.859375 13.78125 -0.046875 L 14.53125 1.140625 C 13.738281 1.703125 12.835938 2.0625 11.828125 2.21875 C 10.816406 2.375 9.769531 2.328125 8.6875 2.078125 Z M 8.6875 2.078125 "/></g></g></g><g fill="#071d3b" fill-opacity="1"><g transform="translate(230.009474, 71.564232)"><g><path d="M 12.53125 3.796875 L 12 5.0625 L 2.25 0.953125 L 8.0625 -12.84375 L 17.515625 -8.859375 L 17 -7.59375 L 9 -10.96875 L 6.921875 -6.0625 L 14.0625 -3.046875 L 13.546875 -1.8125 L 6.40625 -4.828125 L 4.234375 0.296875 Z M 12.53125 3.796875 "/></g></g></g><g fill="#071d3b" fill-opacity="1"><g transform="translate(250.064207, 80.722065)"><g><path d="M 12.09375 3.09375 L 5.109375 -1.453125 L 1.40625 0.921875 L 0.046875 0.03125 L 13.953125 -8.78125 L 15.25 -7.9375 L 12.8125 8.34375 L 11.421875 7.4375 Z M 12.296875 1.71875 L 13.703125 -7 L 6.28125 -2.203125 Z M 12.296875 1.71875 "/></g></g></g><g fill="#071d3b" fill-opacity="1"><g transform="translate(268.983316, 93.965189)"><g><path d="M 4.71875 4.578125 C 3.914062 3.816406 3.257812 2.957031 2.75 2 C 2.238281 1.050781 1.976562 0.171875 1.96875 -0.640625 L 3.25 -1.109375 C 3.28125 -0.347656 3.507812 0.457031 3.9375 1.3125 C 4.375 2.175781 4.9375 2.9375 5.625 3.59375 C 6.601562 4.507812 7.503906 5.015625 8.328125 5.109375 C 9.160156 5.210938 9.847656 4.976562 10.390625 4.40625 C 10.796875 3.96875 10.984375 3.492188 10.953125 2.984375 C 10.929688 2.472656 10.796875 1.96875 10.546875 1.46875 C 10.296875 0.96875 9.898438 0.304688 9.359375 -0.515625 C 8.734375 -1.484375 8.265625 -2.296875 7.953125 -2.953125 C 7.648438 -3.609375 7.507812 -4.296875 7.53125 -5.015625 C 7.550781 -5.734375 7.875 -6.429688 8.5 -7.109375 C 9.007812 -7.648438 9.625 -8.007812 10.34375 -8.1875 C 11.0625 -8.375 11.847656 -8.320312 12.703125 -8.03125 C 13.566406 -7.75 14.445312 -7.1875 15.34375 -6.34375 C 15.96875 -5.757812 16.492188 -5.097656 16.921875 -4.359375 C 17.359375 -3.628906 17.660156 -2.910156 17.828125 -2.203125 L 16.59375 -1.65625 C 16.40625 -2.382812 16.117188 -3.0625 15.734375 -3.6875 C 15.359375 -4.320312 14.914062 -4.875 14.40625 -5.34375 C 13.445312 -6.238281 12.550781 -6.726562 11.71875 -6.8125 C 10.894531 -6.894531 10.210938 -6.644531 9.671875 -6.0625 C 9.265625 -5.625 9.066406 -5.148438 9.078125 -4.640625 C 9.097656 -4.128906 9.242188 -3.613281 9.515625 -3.09375 C 9.785156 -2.570312 10.179688 -1.914062 10.703125 -1.125 C 11.316406 -0.175781 11.78125 0.617188 12.09375 1.265625 C 12.414062 1.921875 12.566406 2.609375 12.546875 3.328125 C 12.535156 4.046875 12.21875 4.738281 11.59375 5.40625 C 11.082031 5.957031 10.460938 6.320312 9.734375 6.5 C 9.015625 6.675781 8.222656 6.609375 7.359375 6.296875 C 6.492188 5.984375 5.613281 5.410156 4.71875 4.578125 Z M 4.71875 4.578125 "/></g></g></g><g fill="#071d3b" fill-opacity="1"><g transform="translate(283.864882, 108.74182)"><g><path d="M 3.90625 5.28125 C 3.226562 4.40625 2.71875 3.453125 2.375 2.421875 C 2.039062 1.398438 1.929688 0.488281 2.046875 -0.3125 L 3.390625 -0.546875 C 3.296875 0.210938 3.390625 1.050781 3.671875 1.96875 C 3.953125 2.882812 4.382812 3.71875 4.96875 4.46875 C 5.78125 5.539062 6.582031 6.191406 7.375 6.421875 C 8.175781 6.648438 8.894531 6.523438 9.53125 6.046875 C 10 5.679688 10.265625 5.242188 10.328125 4.734375 C 10.390625 4.222656 10.335938 3.703125 10.171875 3.171875 C 10.003906 2.640625 9.722656 1.925781 9.328125 1.03125 C 8.859375 -0.03125 8.523438 -0.90625 8.328125 -1.59375 C 8.128906 -2.289062 8.101562 -2.988281 8.25 -3.6875 C 8.394531 -4.394531 8.835938 -5.03125 9.578125 -5.59375 C 10.171875 -6.050781 10.832031 -6.3125 11.5625 -6.375 C 12.289062 -6.445312 13.054688 -6.269531 13.859375 -5.84375 C 14.660156 -5.414062 15.429688 -4.710938 16.171875 -3.734375 C 16.691406 -3.054688 17.109375 -2.316406 17.421875 -1.515625 C 17.734375 -0.722656 17.910156 0.0351562 17.953125 0.765625 L 16.625 1.125 C 16.5625 0.351562 16.394531 -0.375 16.125 -1.0625 C 15.863281 -1.75 15.519531 -2.363281 15.09375 -2.90625 C 14.300781 -3.945312 13.5 -4.578125 12.6875 -4.796875 C 11.882812 -5.015625 11.164062 -4.878906 10.53125 -4.390625 C 10.0625 -4.023438 9.789062 -3.585938 9.71875 -3.078125 C 9.644531 -2.566406 9.703125 -2.035156 9.890625 -1.484375 C 10.078125 -0.929688 10.363281 -0.210938 10.75 0.671875 C 11.195312 1.691406 11.519531 2.550781 11.71875 3.25 C 11.925781 3.945312 11.960938 4.644531 11.828125 5.34375 C 11.691406 6.039062 11.257812 6.671875 10.53125 7.234375 C 9.9375 7.691406 9.269531 7.945312 8.53125 8 C 7.789062 8.050781 7.019531 7.851562 6.21875 7.40625 C 5.414062 6.96875 4.644531 6.257812 3.90625 5.28125 Z M 3.90625 5.28125 "/></g></g></g><g fill="#071d3b" fill-opacity="1"><g transform="translate(296.085863, 125.975142)"><g><path d="M 14.234375 -5.234375 L 15 -3.859375 L 1.96875 3.5 L 1.203125 2.125 Z M 14.234375 -5.234375 "/></g></g></g><g fill="#071d3b" fill-opacity="1"><g transform="translate(302.904194, 138.728654)"><g><path d="M 2.28125 6.15625 C 1.882812 5.125 1.660156 4.066406 1.609375 2.984375 C 1.566406 1.910156 1.710938 1.007812 2.046875 0.28125 L 3.421875 0.40625 C 3.109375 1.101562 2.960938 1.929688 2.984375 2.890625 C 3.003906 3.859375 3.1875 4.785156 3.53125 5.671875 C 4.019531 6.921875 4.613281 7.765625 5.3125 8.203125 C 6.007812 8.648438 6.726562 8.734375 7.46875 8.453125 C 8.019531 8.234375 8.394531 7.890625 8.59375 7.421875 C 8.800781 6.953125 8.898438 6.4375 8.890625 5.875 C 8.878906 5.3125 8.804688 4.546875 8.671875 3.578125 C 8.515625 2.429688 8.4375 1.5 8.4375 0.78125 C 8.445312 0.0625 8.617188 -0.613281 8.953125 -1.25 C 9.285156 -1.894531 9.878906 -2.390625 10.734375 -2.734375 C 11.441406 -3.003906 12.15625 -3.066406 12.875 -2.921875 C 13.59375 -2.773438 14.273438 -2.382812 14.921875 -1.75 C 15.578125 -1.125 16.128906 -0.238281 16.578125 0.90625 C 16.890625 1.695312 17.082031 2.515625 17.15625 3.359375 C 17.238281 4.210938 17.195312 4.992188 17.03125 5.703125 L 15.671875 5.671875 C 15.828125 4.929688 15.867188 4.191406 15.796875 3.453125 C 15.722656 2.722656 15.5625 2.039062 15.3125 1.40625 C 14.832031 0.175781 14.238281 -0.648438 13.53125 -1.078125 C 12.820312 -1.515625 12.09375 -1.582031 11.34375 -1.28125 C 10.789062 -1.070312 10.410156 -0.734375 10.203125 -0.265625 C 9.992188 0.203125 9.898438 0.726562 9.921875 1.3125 C 9.941406 1.894531 10.015625 2.660156 10.140625 3.609375 C 10.285156 4.734375 10.359375 5.65625 10.359375 6.375 C 10.367188 7.101562 10.210938 7.785156 9.890625 8.421875 C 9.566406 9.054688 8.976562 9.539062 8.125 9.875 C 7.425781 10.144531 6.710938 10.203125 5.984375 10.046875 C 5.253906 9.898438 4.566406 9.5 3.921875 8.84375 C 3.273438 8.195312 2.726562 7.300781 2.28125 6.15625 Z M 2.28125 6.15625 "/></g></g></g><g fill="#071d3b" fill-opacity="1"><g transform="translate(309.93131, 158.508651)"><g><path d="M 14.4375 2.359375 L 13.328125 -2.78125 L 14.65625 -3.0625 L 17.1875 8.78125 L 15.859375 9.0625 L 14.765625 3.921875 L 1.453125 6.78125 L 1.125 5.21875 Z M 14.4375 2.359375 "/></g></g></g><g fill="#071d3b" fill-opacity="1"><g transform="translate(313.617281, 178.234902)"><g><path d="M 4.484375 11.65625 L 4.140625 3.328125 L 0.0625 1.6875 L 0 0.046875 L 15.234375 6.28125 L 15.296875 7.84375 L 0.625 15.28125 L 0.546875 13.609375 Z M 5.734375 11.015625 L 13.625 7.109375 L 5.453125 3.84375 Z M 5.734375 11.015625 "/></g></g></g><g fill="#071d3b" fill-opacity="1"><g transform="translate(313.919251, 201.240076)"><g><path d="M 12.578125 17 L -2.21875 14.78125 L -2.015625 13.484375 L 11.421875 5.765625 L -0.59375 3.96875 L -0.359375 2.40625 L 14.4375 4.625 L 14.234375 5.921875 L 0.8125 13.671875 L 12.8125 15.46875 Z M 12.578125 17 "/></g></g></g><g fill="#071d3b" fill-opacity="1"><g transform="translate(309.394325, 225.869597)"><g><path d="M -3.09375 8.390625 C -2.601562 6.992188 -1.847656 5.84375 -0.828125 4.9375 C 0.179688 4.03125 1.347656 3.445312 2.671875 3.1875 C 3.992188 2.9375 5.332031 3.050781 6.6875 3.53125 C 8.039062 4.007812 9.15625 4.757812 10.03125 5.78125 C 10.90625 6.8125 11.453125 8 11.671875 9.34375 C 11.898438 10.695312 11.765625 12.070312 11.265625 13.46875 C 10.898438 14.507812 10.382812 15.410156 9.71875 16.171875 C 9.050781 16.941406 8.273438 17.523438 7.390625 17.921875 L 6.78125 16.625 C 8.28125 15.914062 9.328125 14.71875 9.921875 13.03125 C 10.304688 11.925781 10.40625 10.820312 10.21875 9.71875 C 10.03125 8.625 9.582031 7.660156 8.875 6.828125 C 8.164062 5.992188 7.265625 5.382812 6.171875 5 C 5.066406 4.613281 3.976562 4.523438 2.90625 4.734375 C 1.832031 4.941406 0.878906 5.410156 0.046875 6.140625 C -0.785156 6.878906 -1.394531 7.800781 -1.78125 8.90625 C -2.382812 10.601562 -2.3125 12.195312 -1.5625 13.6875 L -2.84375 14.3125 C -3.300781 13.445312 -3.546875 12.503906 -3.578125 11.484375 C -3.617188 10.460938 -3.457031 9.429688 -3.09375 8.390625 Z M -3.09375 8.390625 "/></g></g></g><g fill="#071d3b" fill-opacity="1"><g transform="translate(301.027843, 247.412109)"><g><path d="M -5.234375 12 L -6.4375 11.328125 L -1.203125 2.125 L 11.8125 9.515625 L 6.734375 18.4375 L 5.546875 17.765625 L 9.84375 10.203125 L 5.21875 7.578125 L 1.390625 14.328125 L 0.21875 13.65625 L 4.046875 6.90625 L -0.78125 4.15625 Z M -5.234375 12 "/></g></g></g><g fill="#071d3b" fill-opacity="1"><g transform="translate(289.281701, 266.328778)"><g/></g></g></svg>